<?xml version="1.0" encoding="utf-8"?>
<!-- Generator: Adobe Illustrator 15.0.2, SVG Export Plug-In  -->
<!DOCTYPE svg PUBLIC "-//W3C//DTD SVG 1.1//EN" "http://www.w3.org/Graphics/SVG/1.1/DTD/svg11.dtd" [
	<!ENTITY ns_flows "http://ns.adobe.com/Flows/1.0/">
]>
<svg version="1.1"
	 xmlns="http://www.w3.org/2000/svg" xmlns:xlink="http://www.w3.org/1999/xlink" xmlns:a="http://ns.adobe.com/AdobeSVGViewerExtensions/3.0/"
	 x="0px" y="0px" width="30px" height="30px" viewBox="-2 -1.979 30 30" enable-background="new -2 -1.979 30 30"
	 xml:space="preserve">
<defs>
</defs>
<polygon points="3,19.192 7,15.192 7,4.021 7,0.021 3,0.021 0,0.021 0,4.021 3,4.021 "/>
<polygon points="15,7.192 15,4.021 18.171,4.021 22.171,0.021 19,0.021 15,0.021 11,0.021 11,4.021 11,11.192 "/>
<polygon points="23,6.85 19,10.85 19,22.021 19,26.021 23,26.021 26,26.021 26,22.021 23,22.021 "/>
<polygon points="11,18.849 11,22.021 7.828,22.021 3.828,26.021 7,26.021 11,26.021 15,26.021 15,22.021 15,14.849 "/>
<rect x="11.013" y="-3.388" transform="matrix(0.7072 0.707 -0.707 0.7072 13.0076 -5.3923)" fill="#FF0000" width="4.001" height="32.79"/>
</svg>
