<?xml version="1.0" encoding="utf-8"?>
<!-- Generator: Adobe Illustrator 15.0.2, SVG Export Plug-In  -->
<!DOCTYPE svg PUBLIC "-//W3C//DTD SVG 1.1//EN" "http://www.w3.org/Graphics/SVG/1.1/DTD/svg11.dtd" [
	<!ENTITY ns_flows "http://ns.adobe.com/Flows/1.0/">
]>
<svg version="1.1"
	 xmlns="http://www.w3.org/2000/svg" xmlns:xlink="http://www.w3.org/1999/xlink" xmlns:a="http://ns.adobe.com/AdobeSVGViewerExtensions/3.0/"
	 x="0px" y="0px" width="30px" height="30px" viewBox="-2 -2 30 30" enable-background="new -2 -2 30 30" xml:space="preserve">
<defs>
</defs>
<rect x="10" width="6" height="14"/>
<polygon points="13,21.501 6.17,14 19.83,14 "/>
<path d="M0,24c0-0.553,0.448-1,1-1h24c0.553,0,1,0.447,1,1v1c0,0.553-0.447,1-1,1H1c-0.552,0-1-0.447-1-1V24z"/>
<path d="M0,19c0-0.553,0.448-1,1-1h1c0.552,0,1,0.447,1,1v6c0,0.553-0.448,1-1,1H1c-0.552,0-1-0.447-1-1V19z"/>
<path d="M26,19c0-0.553-0.447-1-1-1h-1c-0.553,0-1,0.447-1,1v6c0,0.553,0.447,1,1,1h1c0.553,0,1-0.447,1-1V19z"/>
</svg>
