<?xml version="1.0" encoding="utf-8"?>
<!-- Generator: Adobe Illustrator 15.0.2, SVG Export Plug-In  -->
<!DOCTYPE svg PUBLIC "-//W3C//DTD SVG 1.1//EN" "http://www.w3.org/Graphics/SVG/1.1/DTD/svg11.dtd" [
	<!ENTITY ns_flows "http://ns.adobe.com/Flows/1.0/">
]>
<svg version="1.1"
	 xmlns="http://www.w3.org/2000/svg" xmlns:xlink="http://www.w3.org/1999/xlink" xmlns:a="http://ns.adobe.com/AdobeSVGViewerExtensions/3.0/"
	 x="0px" y="0px" width="30px" height="30px" viewBox="-8.154 -2.05 30 30" enable-background="new -8.154 -2.05 30 30"
	 xml:space="preserve">
<defs>
</defs>
<path d="M13.691,6.479c0,1.114-0.186,2.106-0.552,2.976c-0.372,0.87-0.864,1.634-1.478,2.293c-0.614,0.659-1.311,1.267-2.088,1.824
	c-0.778,0.557-1.6,1.097-2.464,1.62v3.888H4.059v-5.2c0.637-0.387,1.378-0.85,2.225-1.39c0.848-0.54,1.51-1.043,1.987-1.509
	c0.613-0.58,1.091-1.213,1.432-1.901c0.34-0.688,0.511-1.469,0.511-2.344c0-1.285-0.402-2.242-1.21-2.873
	C8.196,3.231,7.145,2.916,5.849,2.916c-1.137,0-2.208,0.19-3.214,0.571S0.813,4.263,0.188,4.672H0V1.193
	c0.762-0.307,1.723-0.583,2.882-0.827C4.041,0.122,5.139,0,6.173,0c2.33,0,4.165,0.594,5.506,1.782
	C13.021,2.97,13.691,4.536,13.691,6.479z M7.384,25.9H3.905v-3.598h3.479V25.9z"/>
</svg>
