<?xml version="1.0" encoding="utf-8"?>
<!-- Generator: Adobe Illustrator 15.0.2, SVG Export Plug-In  -->
<!DOCTYPE svg PUBLIC "-//W3C//DTD SVG 1.1//EN" "http://www.w3.org/Graphics/SVG/1.1/DTD/svg11.dtd" [
	<!ENTITY ns_flows "http://ns.adobe.com/Flows/1.0/">
]>
<svg version="1.1"
	 xmlns="http://www.w3.org/2000/svg" xmlns:xlink="http://www.w3.org/1999/xlink" xmlns:a="http://ns.adobe.com/AdobeSVGViewerExtensions/3.0/"
	 x="0px" y="0px" width="30px" height="30px" viewBox="-1.833 -1.833 30 30" enable-background="new -1.833 -1.833 30 30"
	 xml:space="preserve">
<defs>
</defs>
<circle fill="#FFFFFF" cx="14.667" cy="11.667" r="1.5"/>
<rect x="11.417" y="-3.851" transform="matrix(0.7072 0.707 -0.707 0.7072 12.9152 -5.3507)" width="3" height="33.536"/>
<path d="M13.185,6.361c-4.927,0-10.018,2.11-13.018,5.941v1.866h0.008c1.406,1,3.003,2.736,4.726,3.69l1.479-1.502
	c-1.554-0.789-2.999-1.862-4.288-3.177c2.023-2.063,4.432-3.506,7.043-4.238c-0.909,0.981-1.468,2.287-1.468,3.729
	c0,0.705,0.146,1.37,0.388,1.988l8.033-8.024C15.132,6.469,14.171,6.361,13.185,6.361z"/>
<path d="M20.759,8.18l-1.498,1.507c1.814,0.808,3.502,1.976,4.978,3.48c-2.587,2.637-5.8,4.266-9.259,4.688
	c2.145-0.75,3.687-2.786,3.687-5.188c0-0.706-0.138-1.378-0.381-1.998l-7.107,7.108c0.06,0.023,0.115,0.056,0.176,0.077
	c-0.073-0.009-0.144-0.026-0.217-0.036l-1.729,1.729c1.224,0.277,2.48,0.471,3.759,0.471c4.907-0.001,9.516-1.852,12.99-5.852h0.01
	v-1.867C24.167,10.548,22.751,9.175,20.759,8.18z"/>
</svg>
