<?xml version="1.0" encoding="utf-8"?>
<!-- Generator: Adobe Illustrator 15.0.2, SVG Export Plug-In  -->
<!DOCTYPE svg PUBLIC "-//W3C//DTD SVG 1.1//EN" "http://www.w3.org/Graphics/SVG/1.1/DTD/svg11.dtd" [
	<!ENTITY ns_flows "http://ns.adobe.com/Flows/1.0/">
]>
<svg version="1.1"
	 xmlns="http://www.w3.org/2000/svg" xmlns:xlink="http://www.w3.org/1999/xlink" xmlns:a="http://ns.adobe.com/AdobeSVGViewerExtensions/3.0/"
	 x="0px" y="0px" width="30px" height="30px" viewBox="-2 -4.101 30 30" enable-background="new -2 -4.101 30 30"
	 xml:space="preserve">
<defs>
</defs>
<path d="M25.897,12.711c0.215-0.482,0.026-0.813-0.423-0.813H5.979c-0.449,0-0.987,0.33-1.202,0.813L0.103,23.117
	c-0.215,0.484-0.026,0.782,0.423,0.782h19.496c0.449,0,0.987-0.298,1.202-0.782L25.897,12.711z"/>
<path fill="#3FA9F5" d="M24.242,3.45L20,0v1.899c0,0,0.054,0-4.961,0s-5.039,5-5.039,5v5h3c0,0,0-3,0-5s2-2,2-2h5v2L24.242,3.45z"/>
<path d="M21.999,7.899H14v3h9v-2C23,8.347,22.553,7.899,21.999,7.899z"/>
<path d="M9,7.899H8v-1c0-0.552-0.448-1-1-1H1c-0.552,0-1,0.448-1,1v2v1v10.708l3.877-8.708c0.264-0.594,0.927-1,1.479-1H9V7.899z"/>
</svg>
