<?xml version="1.0" encoding="utf-8"?>
<!-- Generator: Adobe Illustrator 15.0.2, SVG Export Plug-In  -->
<!DOCTYPE svg PUBLIC "-//W3C//DTD SVG 1.1//EN" "http://www.w3.org/Graphics/SVG/1.1/DTD/svg11.dtd" [
	<!ENTITY ns_flows "http://ns.adobe.com/Flows/1.0/">
]>
<svg version="1.1"
	 xmlns="http://www.w3.org/2000/svg" xmlns:xlink="http://www.w3.org/1999/xlink" xmlns:a="http://ns.adobe.com/AdobeSVGViewerExtensions/3.0/"
	 x="0px" y="0px" width="30px" height="30px" viewBox="-3 -3 30 30" enable-background="new -3 -3 30 30" xml:space="preserve">
<defs>
</defs>
<circle fill="none" stroke="#000000" stroke-width="6" stroke-miterlimit="10" cx="12" cy="12" r="6"/>
<path d="M14.8,6c0.023,0.552-0.381,1-0.904,1h-3.791C9.581,7,9.176,6.552,9.2,6l0.212-5c0.023-0.552,0.422-1,0.891-1h3.395
	c0.469,0,0.867,0.448,0.891,1L14.8,6z"/>
<path d="M9.2,18c-0.023-0.553,0.381-1,0.905-1h3.791c0.523,0,0.929,0.447,0.904,1l-0.212,5c-0.023,0.553-0.422,1-0.891,1h-3.394
	c-0.469,0-0.868-0.447-0.891-1L9.2,18z"/>
<path d="M5.788,13.752c0.375-0.407,0.977-0.438,1.347-0.067l2.68,2.681c0.37,0.37,0.34,0.973-0.067,1.347l-3.686,3.386
	c-0.408,0.374-1.005,0.408-1.337,0.077l-2.4-2.4c-0.332-0.332-0.297-0.93,0.077-1.337L5.788,13.752z"/>
<path d="M18.25,14.8C17.697,14.823,17,14.419,17,13.896v-3.791c0-0.524,0.697-0.929,1.25-0.905l4.875,0.212
	C23.678,9.436,24,9.834,24,10.303v3.395c0,0.469-0.322,0.867-0.875,0.891L18.25,14.8z"/>
<path d="M13.93,18.389c-0.408-0.374-0.615-1.153-0.245-1.523l2.681-2.68c0.37-0.371,1.15-0.164,1.523,0.244l3.298,3.597
	c0.374,0.407,0.32,0.917-0.012,1.248l-2.4,2.4c-0.331,0.332-0.841,0.386-1.248,0.012L13.93,18.389z"/>
<path d="M17.889,9.571c-0.374,0.407-1.153,0.615-1.523,0.245l-2.68-2.681c-0.371-0.37-0.164-1.15,0.244-1.523l3.597-3.297
	c0.407-0.375,0.917-0.32,1.248,0.011l2.4,2.4c0.332,0.332,0.386,0.841,0.012,1.249L17.889,9.571z"/>
<path d="M5.75,9.2C6.303,9.177,7,9.581,7,10.104v3.79c0,0.524-0.697,0.93-1.25,0.905l-4.875-0.212C0.322,14.564,0,14.166,0,13.697
	v-3.395c0-0.469,0.322-0.867,0.875-0.891L5.75,9.2z"/>
<path d="M10.071,5.611c0.407,0.374,0.615,1.153,0.245,1.523l-2.68,2.68c-0.371,0.371-1.15,0.165-1.524-0.244L2.814,5.974
	c-0.375-0.407-0.32-0.917,0.011-1.249l2.4-2.4c0.332-0.332,0.841-0.386,1.249-0.011L10.071,5.611z"/>
</svg>
