<?xml version="1.0" encoding="utf-8"?>
<!-- Generator: Adobe Illustrator 15.0.2, SVG Export Plug-In  -->
<!DOCTYPE svg PUBLIC "-//W3C//DTD SVG 1.1//EN" "http://www.w3.org/Graphics/SVG/1.1/DTD/svg11.dtd" [
	<!ENTITY ns_flows "http://ns.adobe.com/Flows/1.0/">
]>
<svg version="1.1"
	 xmlns="http://www.w3.org/2000/svg" xmlns:xlink="http://www.w3.org/1999/xlink" xmlns:a="http://ns.adobe.com/AdobeSVGViewerExtensions/3.0/"
	 x="0px" y="0px" width="30px" height="30px" viewBox="-1.975 -8.146 30 30" enable-background="new -1.975 -8.146 30 30"
	 xml:space="preserve">
<defs>
</defs>
<path d="M26.02,5.854C22.546,1.854,17.952,0,13.043,0C8.116,0,3.025,2.157,0.025,5.988v1.866H0.01H0
	c3.478,4,8.086,5.873,13.013,5.873c4.926-0.001,10.012-2.177,13.012-6.007V5.854H26.02z M1.951,6.854
	c2.023-2.063,4.432-3.501,7.043-4.232c-0.909,0.981-1.468,2.29-1.468,3.732c0,2.401,1.542,4.438,3.687,5.188
	C7.753,11.12,4.538,9.491,1.951,6.854z M14.84,11.541c2.145-0.75,3.686-2.786,3.686-5.188c0-1.443-0.56-2.752-1.469-3.732
	c2.611,0.731,5.021,2.169,7.044,4.232C21.514,9.49,18.299,11.119,14.84,11.541z"/>
<circle fill="#FFFFFF" cx="14.525" cy="5.353" r="1.5"/>
</svg>
