<?xml version="1.0" encoding="utf-8"?>
<!-- Generator: Adobe Illustrator 15.0.2, SVG Export Plug-In  -->
<!DOCTYPE svg PUBLIC "-//W3C//DTD SVG 1.1//EN" "http://www.w3.org/Graphics/SVG/1.1/DTD/svg11.dtd" [
	<!ENTITY ns_flows "http://ns.adobe.com/Flows/1.0/">
]>
<svg version="1.1"
	 xmlns="http://www.w3.org/2000/svg" xmlns:xlink="http://www.w3.org/1999/xlink" xmlns:a="http://ns.adobe.com/AdobeSVGViewerExtensions/3.0/"
	 x="0px" y="0px" width="25px" height="25px" viewBox="-3 -3 25 25" enable-background="new -3 -3 25 25" xml:space="preserve">
<defs>
</defs>
<path fill="#4287F5" d="M16,8v4h-5V8H7V3h4V2.375C10.209,2.132,9.37,2,8.5,2C3.806,2,0,5.806,0,10.5C0,15.194,3.806,19,8.5,19
	s8.5-3.806,8.5-8.5c0-0.87-0.132-1.709-0.375-2.5H16z"/>
<polygon points="19,4 15,4 15,0 12,0 12,4 8,4 8,7 12,7 12,11 15,11 15,7 19,7 "/>
</svg>
