<?xml version="1.0" encoding="utf-8"?>
<!-- Generator: Adobe Illustrator 15.0.2, SVG Export Plug-In  -->
<!DOCTYPE svg PUBLIC "-//W3C//DTD SVG 1.1//EN" "http://www.w3.org/Graphics/SVG/1.1/DTD/svg11.dtd" [
	<!ENTITY ns_flows "http://ns.adobe.com/Flows/1.0/">
]>
<svg version="1.1"
	 xmlns="http://www.w3.org/2000/svg" xmlns:xlink="http://www.w3.org/1999/xlink" xmlns:a="http://ns.adobe.com/AdobeSVGViewerExtensions/3.0/"
	 x="0px" y="0px" width="25px" height="25px" viewBox="0 0 25 25" enable-background="new 0 0 25 25" xml:space="preserve">
<defs>
</defs>
<g>
	<polygon points="0.251,0.605 16.341,16.69 7.06,16.69 6.883,16.764 5.471,18.178 0.304,23.384 	"/>
	<path fill="#FFFFFF" d="M0.503,1.209L15.737,16.44H8.472H7.06l-0.354,0.146l-1.413,1.415l-4.741,4.776L0.503,1.209 M0,0
		l0.055,23.989l5.593-5.635L7.06,16.94h1.412h8.472L0,0L0,0z"/>
</g>
<polygon points="24.864,10.743 20.621,6.5 24.864,2.257 22.742,0.136 18.5,4.379 14.258,0.136 12.137,2.257 16.379,6.5 
	12.137,10.743 14.258,12.864 18.5,8.621 22.742,12.864 "/>
</svg>
